<?xml version="1.0" standalone="no"?>
<!DOCTYPE svg PUBLIC "-//W3C//DTD SVG 20010904//EN"
 "http://www.w3.org/TR/2001/REC-SVG-20010904/DTD/svg10.dtd">
<svg version="1.0" xmlns="http://www.w3.org/2000/svg"
 width="358.000000pt" height="438.000000pt" viewBox="0 0 358.000000 438.000000"
 preserveAspectRatio="xMidYMid meet">

<g transform="translate(0.000000,438.000000) scale(0.100000,-0.100000)"
fill="#000000" stroke="none">
<path d="M582 2414 l3 -1646 129 -74 c71 -41 131 -74 133 -74 1 0 37 -20 79
-45 41 -25 77 -45 78 -45 1 0 69 -38 151 -85 82 -47 151 -85 155 -85 3 0 134
75 290 166 157 92 305 178 330 192 25 13 50 28 55 32 6 4 26 17 45 28 19 10
86 49 148 86 62 36 132 77 155 90 23 13 148 86 277 161 225 132 317 186 387
226 17 10 50 29 72 43 22 15 45 26 51 26 7 0 10 144 10 428 l0 428 -107 38
c-60 20 -117 41 -128 46 -11 5 -47 18 -80 29 -33 11 -112 38 -175 61 -63 23
-133 48 -155 55 -22 8 -67 23 -100 35 -33 13 -103 37 -155 56 -52 18 -140 49
-195 69 -55 20 -125 45 -155 55 -30 10 -100 35 -155 55 -158 57 -187 67 -191
62 -4 -3 5 -29 46 -132 4 -11 15 -36 23 -55 11 -28 52 -134 81 -210 3 -8 38
-97 78 -198 57 -142 79 -187 98 -198 14 -8 86 -43 160 -78 74 -35 174 -82 223
-104 48 -23 87 -48 87 -55 0 -7 -15 -21 -32 -30 -37 -18 -56 -29 -333 -192
-110 -65 -216 -127 -235 -137 -19 -11 -39 -24 -45 -28 -5 -4 -30 -19 -55 -32
-46 -26 -109 -63 -238 -138 -40 -23 -75 -40 -78 -38 -2 3 -4 588 -4 1301 0
1032 -2 1297 -12 1304 -7 4 -42 18 -78 31 -126 45 -265 94 -290 102 -14 5 -70
25 -125 45 -95 35 -213 75 -221 75 -2 0 -3 -741 -2 -1646z"/>
</g>
</svg>
